<mxfile host="app.diagrams.net" modified="2023-11-29T11:07:57.380Z" agent="Mozilla/5.0 (Macintosh; Intel Mac OS X 10_15_7) AppleWebKit/537.36 (KHTML, like Gecko) Chrome/119.0.0.0 Safari/537.36" etag="b-C6GhZLwI7lp8GaFhEK" version="22.1.4" type="device">
  <diagram name="Page-1" id="dMN6A9ZRS47wPM1jXMi7">
    <mxGraphModel dx="2924" dy="1150" grid="1" gridSize="10" guides="1" tooltips="1" connect="1" arrows="1" fold="1" page="1" pageScale="1" pageWidth="850" pageHeight="1100" math="0" shadow="0">
      <root>
        <mxCell id="0" />
        <mxCell id="1" parent="0" />
        <mxCell id="tnW_ykBKzRGhXjLJa23y-1" value="" style="rounded=1;whiteSpace=wrap;html=1;" vertex="1" parent="1">
          <mxGeometry x="-380" y="306.5" width="260" height="330" as="geometry" />
        </mxCell>
        <mxCell id="tnW_ykBKzRGhXjLJa23y-2" value="" style="rounded=1;whiteSpace=wrap;html=1;" vertex="1" parent="1">
          <mxGeometry x="-780" y="306.5" width="260" height="330" as="geometry" />
        </mxCell>
        <mxCell id="tnW_ykBKzRGhXjLJa23y-3" style="edgeStyle=orthogonalEdgeStyle;rounded=0;orthogonalLoop=1;jettySize=auto;html=1;exitX=1;exitY=0.5;exitDx=0;exitDy=0;curved=1;strokeWidth=2;strokeColor=#844FBA;" edge="1" parent="1" source="tnW_ykBKzRGhXjLJa23y-4" target="tnW_ykBKzRGhXjLJa23y-7">
          <mxGeometry relative="1" as="geometry" />
        </mxCell>
        <mxCell id="tnW_ykBKzRGhXjLJa23y-4" value="&lt;b&gt;Runbook&lt;br&gt;&lt;/b&gt;&lt;br&gt;&lt;br&gt;" style="rounded=1;whiteSpace=wrap;html=1;fontFamily=Ubuntu;strokeColor=none;fillColor=#000000;fontColor=#FFFFFF;" vertex="1" parent="1">
          <mxGeometry x="-700" y="410" width="100" height="90" as="geometry" />
        </mxCell>
        <mxCell id="tnW_ykBKzRGhXjLJa23y-5" value="" style="dashed=0;outlineConnect=0;html=1;align=center;labelPosition=center;verticalLabelPosition=bottom;verticalAlign=top;shape=mxgraph.weblogos.github" vertex="1" parent="1">
          <mxGeometry x="-667.5" y="454" width="35" height="35" as="geometry" />
        </mxCell>
        <mxCell id="tnW_ykBKzRGhXjLJa23y-6" style="edgeStyle=orthogonalEdgeStyle;rounded=0;orthogonalLoop=1;jettySize=auto;html=1;exitX=1;exitY=0.5;exitDx=0;exitDy=0;strokeWidth=2;" edge="1" parent="1" source="tnW_ykBKzRGhXjLJa23y-7" target="tnW_ykBKzRGhXjLJa23y-15">
          <mxGeometry relative="1" as="geometry" />
        </mxCell>
        <mxCell id="tnW_ykBKzRGhXjLJa23y-7" value="&lt;b&gt;GitHub Secrets&lt;/b&gt;" style="rounded=1;whiteSpace=wrap;html=1;fontFamily=Ubuntu;strokeColor=none;fillColor=#000000;fontColor=#FFFFFF;" vertex="1" parent="1">
          <mxGeometry x="-356.25" y="350" width="100" height="90" as="geometry" />
        </mxCell>
        <mxCell id="tnW_ykBKzRGhXjLJa23y-8" style="edgeStyle=orthogonalEdgeStyle;rounded=0;orthogonalLoop=1;jettySize=auto;html=1;entryX=0.5;entryY=1;entryDx=0;entryDy=0;fontFamily=Ubuntu;strokeWidth=3;" edge="1" parent="1" source="tnW_ykBKzRGhXjLJa23y-9" target="tnW_ykBKzRGhXjLJa23y-4">
          <mxGeometry relative="1" as="geometry" />
        </mxCell>
        <mxCell id="tnW_ykBKzRGhXjLJa23y-9" value="" style="image;aspect=fixed;html=1;points=[];align=center;fontSize=12;image=img/lib/azure2/azure_stack/User_Subscriptions.svg;" vertex="1" parent="1">
          <mxGeometry x="-673.7" y="560" width="47.39" height="46" as="geometry" />
        </mxCell>
        <mxCell id="tnW_ykBKzRGhXjLJa23y-10" value="&lt;font face=&quot;Ubuntu&quot;&gt;&lt;b&gt;Configuration Management&lt;/b&gt;&lt;/font&gt;" style="text;html=1;strokeColor=none;fillColor=none;align=center;verticalAlign=middle;whiteSpace=wrap;rounded=0;" vertex="1" parent="1">
          <mxGeometry x="-750" y="310" width="212.5" height="30" as="geometry" />
        </mxCell>
        <mxCell id="tnW_ykBKzRGhXjLJa23y-11" value="&lt;font face=&quot;Ubuntu&quot;&gt;&lt;b&gt;Editing&lt;br&gt;&lt;/b&gt;&lt;/font&gt;" style="text;html=1;strokeColor=none;fillColor=none;align=center;verticalAlign=middle;whiteSpace=wrap;rounded=0;" vertex="1" parent="1">
          <mxGeometry x="-720" y="520" width="212.5" height="30" as="geometry" />
        </mxCell>
        <mxCell id="tnW_ykBKzRGhXjLJa23y-12" value="&lt;font face=&quot;Ubuntu&quot;&gt;&lt;b&gt;Deployment&lt;/b&gt;&lt;/font&gt;" style="text;html=1;strokeColor=none;fillColor=none;align=center;verticalAlign=middle;whiteSpace=wrap;rounded=0;" vertex="1" parent="1">
          <mxGeometry x="-356.25" y="310" width="212.5" height="30" as="geometry" />
        </mxCell>
        <mxCell id="tnW_ykBKzRGhXjLJa23y-13" value="&lt;font face=&quot;Ubuntu&quot;&gt;&lt;b&gt;EC2 instance&lt;/b&gt;&lt;/font&gt;" style="points=[[0,0],[0.25,0],[0.5,0],[0.75,0],[1,0],[1,0.25],[1,0.5],[1,0.75],[1,1],[0.75,1],[0.5,1],[0.25,1],[0,1],[0,0.75],[0,0.5],[0,0.25]];outlineConnect=0;gradientColor=none;html=1;whiteSpace=wrap;fontSize=12;fontStyle=0;container=1;pointerEvents=0;collapsible=0;recursiveResize=0;shape=mxgraph.aws4.group;grIcon=mxgraph.aws4.group_ec2_instance_contents;strokeColor=#D86613;fillColor=none;verticalAlign=top;align=left;spacingLeft=30;fontColor=#D86613;dashed=0;" vertex="1" parent="1">
          <mxGeometry x="-312.5" y="520" width="125" height="95" as="geometry" />
        </mxCell>
        <mxCell id="tnW_ykBKzRGhXjLJa23y-14" style="edgeStyle=orthogonalEdgeStyle;rounded=0;orthogonalLoop=1;jettySize=auto;html=1;strokeWidth=2;curved=1;" edge="1" parent="1" source="tnW_ykBKzRGhXjLJa23y-15" target="tnW_ykBKzRGhXjLJa23y-13">
          <mxGeometry relative="1" as="geometry" />
        </mxCell>
        <mxCell id="tnW_ykBKzRGhXjLJa23y-15" value="" style="shape=image;verticalLabelPosition=bottom;labelBackgroundColor=default;verticalAlign=top;aspect=fixed;imageAspect=0;image=https://i.pinimg.com/originals/b2/8c/bc/b28cbc9db0648f3d69ea24eebe3ff4a2.png;" vertex="1" parent="1">
          <mxGeometry x="-210" y="363.75" width="62.5" height="62.5" as="geometry" />
        </mxCell>
        <mxCell id="tnW_ykBKzRGhXjLJa23y-16" value="&lt;font face=&quot;Ubuntu&quot;&gt;&lt;b style=&quot;&quot;&gt;&lt;font color=&quot;#844fba&quot;&gt;hashistack&lt;br&gt;github-secrets action&lt;/font&gt;&lt;br&gt;&lt;/b&gt;&lt;/font&gt;" style="text;html=1;strokeColor=none;fillColor=none;align=center;verticalAlign=middle;whiteSpace=wrap;rounded=0;rotation=-15;" vertex="1" parent="1">
          <mxGeometry x="-570" y="363.75" width="230" height="30" as="geometry" />
        </mxCell>
      </root>
    </mxGraphModel>
  </diagram>
</mxfile>
